<?xml version="1.0" encoding="UTF-8"?>
<!DOCTYPE svg PUBLIC "-//W3C//DTD SVG 1.1//EN" "http://www.w3.org/Graphics/SVG/1.1/DTD/svg11.dtd">
<svg version="1.1" width="178.86mm" height="177.06mm" viewBox="0 0 17886 17706" preserveAspectRatio="xMidYMid" fill-rule="evenodd" clip-path="url(#presentation_clip_path)" stroke-width="10px"  xmlns="http://www.w3.org/2000/svg" xmlns:ooo="http://xml.openoffice.org/svg/export" xmlns:xlink="http://www.w3.org/1999/xlink" xml:space="preserve">
 <defs class="ClipPathGroup">
  <clipPath id="presentation_clip_path" clipPathUnits="userSpaceOnUse">
   <rect x="0" y="0" width="17886" height="17706"/>
  </clipPath>
 </defs>
 <defs class="TextShapeIndex">
  
 </defs>
 <defs class="TextEmbeddedBitmaps"/>
 <g>
  <g id="id2" class="Master_Slide">
   <g id="bg-id2" class="Background"/>
   <g id="bo-id2" class="BackgroundObjects"/>
  </g>
 </g>
 <g class="SlideGroup">
  <g>
   <g id="id1" class="Slide" clip-path="url(#presentation_clip_path)">
    <g class="Page">
     <g class="Group">
      <g class="com.sun.star.drawing.PolyPolygonShape">
       <g id="id3">
        <path fill="none" stroke="rgb(0,0,0)" vector-effect="non-scaling-stroke" stroke-width="1px" d="M 8941,212 L 4171,1609 915,5364 208,10282 2274,14803 6454,17489 11421,17489 15600,14803 17665,10284 16958,5364 13704,1607 8941,212 Z"/>
       </g>
      </g>
      <g class="Group" opacity="0"><animate id="last" attributeName="opacity"  from="0" to="0" begin="first.end" dur="5000ms"/>
       <g class="com.sun.star.drawing.EllipseShape">
        <g id="id4"><animate id="first" attributeName="opacity" from="0" to="0" begin="0ms; last.end" dur="5000ms"/>
         <path fill="rgb(255,255,255)" stroke="none" d="M 9112,264 C 9102,295 9087,320 9064,342 9040,365 9015,378 8983,386 8952,394 8923,393 8892,384 8861,375 8836,360 8814,336 8791,313 8777,287 8770,256 8762,224 8763,195 8772,164 8781,133 8796,108 8819,86 8843,63 8868,50 8900,42 8932,34 8960,35 8991,44 9023,53 9047,68 9070,92 9092,115 9106,141 9114,172 9121,204 9121,233 9112,264 L 9112,264 Z"/>
         <path fill="none" stroke="rgb(0,0,0)" stroke-width="71" d="M 9112,264 C 9102,295 9087,320 9064,342 9040,365 9015,378 8983,386 8952,394 8923,393 8892,384 8861,375 8836,360 8814,336 8791,313 8777,287 8770,256 8762,224 8763,195 8772,164 8781,133 8796,108 8819,86 8843,63 8868,50 8900,42 8932,34 8960,35 8991,44 9023,53 9047,68 9070,92 9092,115 9106,141 9114,172 9121,204 9121,233 9112,264 L 9112,264 Z"/>
        </g>
       </g>
       <g class="com.sun.star.drawing.EllipseShape">
        <g id="id5">
         <path fill="rgb(255,255,255)" stroke="none" d="M 4343,1562 C 4352,1594 4353,1622 4345,1654 4337,1686 4324,1711 4301,1734 4279,1758 4254,1773 4223,1782 4192,1791 4163,1792 4131,1784 4100,1777 4074,1763 4051,1740 4027,1718 4012,1693 4003,1662 3994,1631 3993,1602 4001,1571 4009,1539 4022,1514 4045,1490 4067,1467 4092,1452 4123,1442 4154,1433 4183,1433 4215,1440 4246,1448 4272,1462 4295,1484 4319,1507 4334,1531 4343,1562 L 4343,1562 Z"/>
         <path fill="none" stroke="rgb(0,0,0)" stroke-width="71" d="M 4343,1562 C 4352,1594 4353,1622 4345,1654 4337,1686 4324,1711 4301,1734 4279,1758 4254,1773 4223,1782 4192,1791 4163,1792 4131,1784 4100,1777 4074,1763 4051,1740 4027,1718 4012,1693 4003,1662 3994,1631 3993,1602 4001,1571 4009,1539 4022,1514 4045,1490 4067,1467 4092,1452 4123,1442 4154,1433 4183,1433 4215,1440 4246,1448 4272,1462 4295,1484 4319,1507 4334,1531 4343,1562 L 4343,1562 Z"/>
        </g>
       </g>
       <g class="com.sun.star.drawing.EllipseShape">
        <g id="id6">
         <path fill="rgb(255,255,255)" stroke="none" d="M 1034,5234 C 1059,5255 1075,5279 1085,5309 1096,5340 1098,5369 1092,5401 1086,5433 1073,5459 1052,5483 1031,5508 1007,5524 976,5535 945,5545 917,5547 885,5541 853,5535 827,5522 802,5501 778,5480 762,5456 751,5425 740,5394 738,5366 744,5334 751,5302 763,5276 784,5251 806,5227 829,5211 860,5200 891,5189 920,5187 952,5194 984,5200 1009,5212 1034,5234 L 1034,5234 Z"/>
         <path fill="none" stroke="rgb(0,0,0)" stroke-width="71" d="M 1034,5234 C 1059,5255 1075,5279 1085,5309 1096,5340 1098,5369 1092,5401 1086,5433 1073,5459 1052,5483 1031,5508 1007,5524 976,5535 945,5545 917,5547 885,5541 853,5535 827,5522 802,5501 778,5480 762,5456 751,5425 740,5394 738,5366 744,5334 751,5302 763,5276 784,5251 806,5227 829,5211 860,5200 891,5189 920,5187 952,5194 984,5200 1009,5212 1034,5234 L 1034,5234 Z"/>
        </g>
       </g>
       <g class="com.sun.star.drawing.EllipseShape">
        <g id="id7">
         <path fill="rgb(255,255,255)" stroke="none" d="M 238,10111 C 270,10116 297,10127 322,10147 348,10168 365,10191 377,10221 389,10251 393,10280 388,10312 384,10344 372,10370 352,10396 332,10422 309,10439 279,10451 249,10463 220,10466 188,10462 156,10457 129,10446 104,10426 78,10406 61,10383 49,10352 37,10322 33,10294 38,10261 42,10229 54,10203 74,10177 94,10152 117,10134 147,10122 178,10110 206,10107 238,10111 L 238,10111 Z"/>
         <path fill="none" stroke="rgb(0,0,0)" stroke-width="71" d="M 238,10111 C 270,10116 297,10127 322,10147 348,10168 365,10191 377,10221 389,10251 393,10280 388,10312 384,10344 372,10370 352,10396 332,10422 309,10439 279,10451 249,10463 220,10466 188,10462 156,10457 129,10446 104,10426 78,10406 61,10383 49,10352 37,10322 33,10294 38,10261 42,10229 54,10203 74,10177 94,10152 117,10134 147,10122 178,10110 206,10107 238,10111 L 238,10111 Z"/>
        </g>
       </g>
       <g class="com.sun.star.drawing.EllipseShape">
        <g id="id8">
         <path fill="rgb(255,255,255)" stroke="none" d="M 2200,14648 C 2230,14635 2258,14630 2290,14633 2323,14636 2350,14646 2376,14665 2403,14684 2421,14706 2434,14736 2448,14766 2453,14794 2450,14826 2447,14859 2437,14886 2418,14912 2399,14939 2377,14957 2347,14971 2317,14984 2289,14989 2257,14986 2224,14983 2197,14973 2171,14954 2144,14935 2126,14913 2112,14883 2099,14853 2094,14825 2097,14793 2100,14760 2110,14733 2129,14707 2148,14680 2170,14662 2200,14648 L 2200,14648 Z"/>
         <path fill="none" stroke="rgb(0,0,0)" stroke-width="71" d="M 2200,14648 C 2230,14635 2258,14630 2290,14633 2323,14636 2350,14646 2376,14665 2403,14684 2421,14706 2434,14736 2448,14766 2453,14794 2450,14826 2447,14859 2437,14886 2418,14912 2399,14939 2377,14957 2347,14971 2317,14984 2289,14989 2257,14986 2224,14983 2197,14973 2171,14954 2144,14935 2126,14913 2112,14883 2099,14853 2094,14825 2097,14793 2100,14760 2110,14733 2129,14707 2148,14680 2170,14662 2200,14648 L 2200,14648 Z"/>
        </g>
       </g>
       <g class="com.sun.star.drawing.EllipseShape">
        <g id="id9">
         <path fill="rgb(255,255,255)" stroke="none" d="M 6305,17398 C 6323,17370 6344,17351 6373,17336 6402,17321 6430,17315 6463,17316 6495,17318 6523,17327 6550,17344 6577,17362 6597,17383 6612,17412 6627,17441 6633,17469 6631,17502 6630,17534 6621,17562 6603,17589 6586,17616 6565,17636 6536,17651 6507,17666 6479,17672 6446,17670 6414,17669 6386,17660 6359,17642 6331,17625 6312,17603 6297,17574 6282,17545 6276,17517 6278,17485 6279,17452 6288,17425 6305,17398 L 6305,17398 Z"/>
         <path fill="none" stroke="rgb(0,0,0)" stroke-width="71" d="M 6305,17398 C 6323,17370 6344,17351 6373,17336 6402,17321 6430,17315 6463,17316 6495,17318 6523,17327 6550,17344 6577,17362 6597,17383 6612,17412 6627,17441 6633,17469 6631,17502 6630,17534 6621,17562 6603,17589 6586,17616 6565,17636 6536,17651 6507,17666 6479,17672 6446,17670 6414,17669 6386,17660 6359,17642 6331,17625 6312,17603 6297,17574 6282,17545 6276,17517 6278,17485 6279,17452 6288,17425 6305,17398 L 6305,17398 Z"/>
        </g>
       </g>
       <g class="com.sun.star.drawing.EllipseShape">
        <g id="id10">
         <path fill="rgb(255,255,255)" stroke="none" d="M 11250,17494 C 11250,17461 11257,17434 11274,17405 11290,17377 11310,17357 11338,17341 11367,17324 11394,17317 11427,17317 11460,17317 11487,17324 11515,17341 11544,17357 11564,17377 11580,17405 11597,17434 11604,17461 11604,17494 11604,17527 11597,17554 11580,17582 11564,17611 11544,17631 11515,17647 11487,17664 11460,17671 11427,17671 11394,17671 11367,17664 11338,17647 11310,17631 11290,17611 11274,17582 11257,17554 11250,17527 11250,17494 L 11250,17494 Z"/>
         <path fill="none" stroke="rgb(0,0,0)" stroke-width="71" d="M 11250,17494 C 11250,17461 11257,17434 11274,17405 11290,17377 11310,17357 11338,17341 11367,17324 11394,17317 11427,17317 11460,17317 11487,17324 11515,17341 11544,17357 11564,17377 11580,17405 11597,17434 11604,17461 11604,17494 11604,17527 11597,17554 11580,17582 11564,17611 11544,17631 11515,17647 11487,17664 11460,17671 11427,17671 11394,17671 11367,17664 11338,17647 11310,17631 11290,17611 11274,17582 11257,17554 11250,17527 11250,17494 L 11250,17494 Z"/>
        </g>
       </g>
       <g class="com.sun.star.drawing.EllipseShape">
        <g id="id11">
         <path fill="rgb(255,255,255)" stroke="none" d="M 15456,14907 C 15438,14880 15430,14853 15428,14820 15426,14787 15433,14759 15447,14730 15462,14702 15482,14680 15509,14663 15537,14645 15564,14636 15596,14635 15629,14633 15657,14639 15686,14654 15715,14669 15736,14688 15754,14716 15771,14743 15780,14771 15782,14803 15783,14836 15777,14864 15762,14893 15747,14922 15728,14943 15700,14961 15673,14978 15646,14987 15613,14988 15581,14990 15553,14984 15524,14969 15495,14954 15473,14935 15456,14907 L 15456,14907 Z"/>
         <path fill="none" stroke="rgb(0,0,0)" stroke-width="71" d="M 15456,14907 C 15438,14880 15430,14853 15428,14820 15426,14787 15433,14759 15447,14730 15462,14702 15482,14680 15509,14663 15537,14645 15564,14636 15596,14635 15629,14633 15657,14639 15686,14654 15715,14669 15736,14688 15754,14716 15771,14743 15780,14771 15782,14803 15783,14836 15777,14864 15762,14893 15747,14922 15728,14943 15700,14961 15673,14978 15646,14987 15613,14988 15581,14990 15553,14984 15524,14969 15495,14954 15473,14935 15456,14907 L 15456,14907 Z"/>
        </g>
       </g>
       <g class="com.sun.star.drawing.EllipseShape">
        <g id="id12">
         <path fill="rgb(255,255,255)" stroke="none" d="M 17600,10449 C 17570,10435 17548,10417 17529,10390 17510,10364 17500,10337 17497,10304 17494,10272 17499,10244 17512,10214 17526,10184 17544,10162 17571,10143 17597,10124 17624,10114 17657,10111 17689,10108 17717,10113 17747,10127 17777,10140 17799,10158 17818,10185 17837,10211 17847,10238 17850,10271 17853,10303 17848,10331 17834,10361 17821,10391 17803,10413 17776,10432 17750,10451 17723,10461 17690,10464 17658,10467 17630,10462 17600,10449 L 17600,10449 Z"/>
         <path fill="none" stroke="rgb(0,0,0)" stroke-width="71" d="M 17600,10449 C 17570,10435 17548,10417 17529,10390 17510,10364 17500,10337 17497,10304 17494,10272 17499,10244 17512,10214 17526,10184 17544,10162 17571,10143 17597,10124 17624,10114 17657,10111 17689,10108 17717,10113 17747,10127 17777,10140 17799,10158 17818,10185 17837,10211 17847,10238 17850,10271 17853,10303 17848,10331 17834,10361 17821,10391 17803,10413 17776,10432 17750,10451 17723,10461 17690,10464 17658,10467 17630,10462 17600,10449 L 17600,10449 Z"/>
        </g>
       </g>
       <g class="com.sun.star.drawing.EllipseShape">
        <g id="id13">
         <path fill="rgb(255,255,255)" stroke="none" d="M 16990,5543 C 16957,5548 16929,5544 16899,5532 16868,5520 16845,5503 16825,5477 16805,5452 16794,5425 16789,5393 16785,5361 16788,5332 16800,5302 16812,5272 16829,5249 16855,5229 16881,5209 16907,5197 16939,5193 16971,5188 17000,5192 17030,5204 17060,5216 17083,5233 17104,5259 17124,5284 17135,5311 17140,5343 17144,5375 17141,5404 17129,5434 17117,5464 17099,5487 17074,5507 17048,5527 17022,5539 16990,5543 L 16990,5543 Z"/>
         <path fill="none" stroke="rgb(0,0,0)" stroke-width="71" d="M 16990,5543 C 16957,5548 16929,5544 16899,5532 16868,5520 16845,5503 16825,5477 16805,5452 16794,5425 16789,5393 16785,5361 16788,5332 16800,5302 16812,5272 16829,5249 16855,5229 16881,5209 16907,5197 16939,5193 16971,5188 17000,5192 17030,5204 17060,5216 17083,5233 17104,5259 17124,5284 17135,5311 17140,5343 17144,5375 17141,5404 17129,5434 17117,5464 17099,5487 17074,5507 17048,5527 17022,5539 16990,5543 L 16990,5543 Z"/>
        </g>
       </g>
       <g class="com.sun.star.drawing.EllipseShape">
        <g id="id14">
         <path fill="rgb(255,255,255)" stroke="none" d="M 13826,1747 C 13801,1768 13775,1780 13743,1787 13711,1793 13683,1791 13652,1780 13621,1769 13597,1753 13576,1729 13555,1704 13542,1678 13536,1646 13530,1614 13532,1586 13542,1555 13553,1524 13569,1500 13594,1479 13618,1458 13644,1445 13676,1439 13708,1433 13737,1435 13768,1446 13798,1456 13822,1472 13843,1497 13865,1522 13877,1547 13883,1579 13890,1611 13888,1640 13877,1671 13866,1702 13850,1725 13826,1747 L 13826,1747 Z"/>
         <path fill="none" stroke="rgb(0,0,0)" stroke-width="71" d="M 13826,1747 C 13801,1768 13775,1780 13743,1787 13711,1793 13683,1791 13652,1780 13621,1769 13597,1753 13576,1729 13555,1704 13542,1678 13536,1646 13530,1614 13532,1586 13542,1555 13553,1524 13569,1500 13594,1479 13618,1458 13644,1445 13676,1439 13708,1433 13737,1435 13768,1446 13798,1456 13822,1472 13843,1497 13865,1522 13877,1547 13883,1579 13890,1611 13888,1640 13877,1671 13866,1702 13850,1725 13826,1747 L 13826,1747 Z"/>
        </g>
       </g>
      </g>
     </g>
    </g>
   </g>
  </g>
 </g>
</svg>